<svg width="43" height="42" viewBox="0 0 43 42" fill="none" xmlns="http://www.w3.org/2000/svg">
<path d="M21.7104 28C25.5764 28 28.7104 24.866 28.7104 21C28.7104 17.134 25.5764 14 21.7104 14C17.8445 14 14.7104 17.134 14.7104 21C14.7104 24.866 17.8445 28 21.7104 28Z" stroke="#ABACAC" stroke-width="2.5" stroke-linecap="round" stroke-linejoin="round"/>
<path d="M7.71066 22.5C7.00007 21 7.00006 20 7.42124 18.5M13.0002 9.5C13.8346 8.62499 14.941 8.02772 16.0002 8M12.5002 31.5C13.5002 32.5 14.5002 33.5 16.5002 34M30.0002 9.5C29.0002 8.5 28.0002 8 26.5002 8M27.0002 34C28.5002 33.5 29.5002 32.5 30.5002 31.5M36.0002 22.5C36.5 21 36.5 19.5 36.0002 18.5" stroke="#ABACAC" stroke-width="2.5" stroke-linecap="round" stroke-linejoin="round"/>
<path d="M26.5 8L25.5455 2H21.0965H16.9545L16 8" stroke="#ABACAC" stroke-width="2.5" stroke-linecap="round" stroke-linejoin="round"/>
<path d="M26.9604 34L26.0059 40H21.557H17.415L16.4604 34" stroke="#ABACAC" stroke-width="2.5" stroke-linecap="round" stroke-linejoin="round"/>
<path d="M36.4988 18.0574L40.8853 13.8539L38.3501 10.198L35.9897 6.79431L30.5153 9.42904" stroke="#ABACAC" stroke-width="2.5" stroke-linecap="round" stroke-linejoin="round"/>
<path d="M35.9998 22.5L40.4722 25.8206L38.4766 29.7969L36.6188 33.4988L30.8281 31.6607" stroke="#ABACAC" stroke-width="2.5" stroke-linecap="round" stroke-linejoin="round"/>
<path d="M6.93042 18.0574L2.5439 13.8539L5.07914 10.198L7.43946 6.79431L12.9139 9.42904" stroke="#ABACAC" stroke-width="2.5" stroke-linecap="round" stroke-linejoin="round"/>
<path d="M7.83911 22.2634L2.93241 25.8461L4.95882 29.8067L6.84541 33.4941L12.6217 31.611" stroke="#ABACAC" stroke-width="2.5" stroke-linecap="round" stroke-linejoin="round"/>
</svg>
