<svg width="44" height="42" viewBox="0 0 44 42" fill="none" xmlns="http://www.w3.org/2000/svg">
<path d="M21.7109 28C25.5769 28 28.7109 24.866 28.7109 21C28.7109 17.134 25.5769 14 21.7109 14C17.8449 14 14.7109 17.134 14.7109 21C14.7109 24.866 17.8449 28 21.7109 28Z" stroke="#ACACAC" stroke-width="2.5" stroke-linecap="round" stroke-linejoin="round"/>
<path d="M7.71091 22.5C7.00032 21 7.00031 20 7.42148 18.5M13.0005 9.5C13.8348 8.62499 14.9413 8.02772 16.0005 8M12.5005 31.5C13.5005 32.5 14.5005 33.5 16.5005 34M30.0004 9.5C29.0004 8.5 28.0004 8 26.5004 8M27.0004 34C28.5004 33.5 29.5004 32.5 30.5004 31.5M36.0004 22.5C36.5002 21 36.5002 19.5 36.0004 18.5" stroke="#ACACAC" stroke-width="2.5" stroke-linecap="round" stroke-linejoin="round"/>
<path d="M26.5 8L25.5455 2H21.0965H16.9545L16 8" stroke="#ACACAC" stroke-width="2.5" stroke-linecap="round" stroke-linejoin="round"/>
<path d="M26.9609 34L26.0064 40H21.5575H17.4155L16.4609 34" stroke="#ACACAC" stroke-width="2.5" stroke-linecap="round" stroke-linejoin="round"/>
<path d="M36.499 18.0574L40.8855 13.8539L38.3503 10.198L35.99 6.79431L30.5156 9.42904" stroke="#ACACAC" stroke-width="2.5" stroke-linecap="round" stroke-linejoin="round"/>
<path d="M35.9998 22.5L40.4722 25.8206L38.4766 29.7969L36.6188 33.4988L30.8281 31.6607" stroke="#ACACAC" stroke-width="2.5" stroke-linecap="round" stroke-linejoin="round"/>
<path d="M6.93066 18.0574L2.54414 13.8539L5.07939 10.198L7.43971 6.79431L12.9141 9.42904" stroke="#ACACAC" stroke-width="2.5" stroke-linecap="round" stroke-linejoin="round"/>
<path d="M7.83887 22.2634L2.93217 25.8461L4.95858 29.8067L6.84516 33.4941L12.6214 31.611" stroke="#ACACAC" stroke-width="2.5" stroke-linecap="round" stroke-linejoin="round"/>
</svg>
