<svg width="44" height="42" viewBox="0 0 44 42" fill="none" xmlns="http://www.w3.org/2000/svg">
<path d="M21.7104 28C25.5764 28 28.7104 24.866 28.7104 21C28.7104 17.134 25.5764 14 21.7104 14C17.8445 14 14.7104 17.134 14.7104 21C14.7104 24.866 17.8445 28 21.7104 28Z" stroke="#ABACAC" stroke-width="2.5" stroke-linecap="round" stroke-linejoin="round"/>
<path d="M21.7104 35C29.4424 35 35.7104 28.732 35.7104 21C35.7104 13.268 29.4424 7 21.7104 7C13.9785 7 7.71045 13.268 7.71045 21C7.71045 28.732 13.9785 35 21.7104 35Z" stroke="#ABACAC" stroke-width="2.5" stroke-linecap="round" stroke-linejoin="round"/>
<path d="M26.9604 8L26.0059 2H21.557H17.415L16.4604 8" stroke="#ABACAC" stroke-width="2.5" stroke-linecap="round" stroke-linejoin="round"/>
<path d="M26.9604 34L26.0059 40H21.557H17.415L16.4604 34" stroke="#ABACAC" stroke-width="2.5" stroke-linecap="round" stroke-linejoin="round"/>
<path d="M36.4988 18.0574L40.8853 13.8539L38.3501 10.198L35.9897 6.79431L30.5153 9.42904" stroke="#ABACAC" stroke-width="2.5" stroke-linecap="round" stroke-linejoin="round"/>
<path d="M35.5378 22.2762L40.4722 25.8206L38.4767 29.7969L36.6188 33.4989L30.8281 31.6607" stroke="#ABACAC" stroke-width="2.5" stroke-linecap="round" stroke-linejoin="round"/>
<path d="M6.93042 18.0574L2.5439 13.8539L5.07914 10.198L7.43946 6.79431L12.9139 9.42904" stroke="#ABACAC" stroke-width="2.5" stroke-linecap="round" stroke-linejoin="round"/>
<path d="M6.93042 18.0574L2.5439 13.8539L5.07914 10.198L7.43946 6.79431L12.9139 9.42904" stroke="#ABACAC" stroke-width="2.5" stroke-linecap="round" stroke-linejoin="round"/>
<path d="M7.83911 22.2634L2.93241 25.8461L4.95882 29.8067L6.84541 33.4941L12.6217 31.611" stroke="#ABACAC" stroke-width="2.5" stroke-linecap="round" stroke-linejoin="round"/>
<path d="M8.14878 17.3387C8.55362 16.8334 8.64481 16.2775 8.81453 15.8541C10.1622 12.4918 12.1597 11.2029 12.4596 10.5666" stroke="white" stroke-width="3"/>
<path d="M8.10509 23.6997C8.44561 24.2221 8.47159 24.768 8.59006 25.192C9.53084 28.5588 11.349 29.9693 11.5713 30.6101" stroke="white" stroke-width="3"/>
<path d="M35.3197 23.731C34.9793 24.2532 34.9534 24.799 34.8349 25.2229C33.8946 28.589 32.0766 29.999 31.8545 30.6397" stroke="white" stroke-width="3"/>
<path d="M35.2614 17.3577C34.8564 16.8522 34.7651 16.2962 34.5953 15.8727C33.2468 12.5093 31.2489 11.2198 30.9488 10.5832" stroke="white" stroke-width="3"/>
<path d="M25.5562 7.60299C24.9345 7.67061 24.4343 7.447 24.0014 7.36102C20.5631 6.67828 18.4766 7.66251 17.8025 7.57106" stroke="white" stroke-width="3"/>
<path d="M25.5667 34.409C24.9448 34.3413 24.4445 34.5649 24.0114 34.6509C20.5721 35.3336 18.4849 34.3493 17.8107 34.4408" stroke="white" stroke-width="3"/>
</svg>
